<svg width="53" height="38" viewBox="0 0 53 38" fill="none" xmlns="http://www.w3.org/2000/svg">
<path d="M22.2929 26.12V30.56H18.9329V38H13.7129V30.56H0.872886V26.06L11.6729 0.439997H17.0729L6.03289 26.12H13.7129V18.92H18.9329V26.12H22.2929ZM24.6153 38V30.62H30.6753V38H24.6153ZM40.9032 14.54H46.7232C50.4832 14.54 52.3632 16.3 52.3632 19.82V32.72C52.3632 36.24 50.4832 38 46.7232 38H40.9632C37.2432 38 35.3832 36.24 35.3832 32.72V26.06H40.8432V31.88C40.8432 32.6 40.9632 33.08 41.2032 33.32C41.4432 33.52 41.9232 33.62 42.6432 33.62H45.1032C45.8232 33.62 46.3032 33.52 46.5432 33.32C46.7832 33.08 46.9032 32.6 46.9032 31.88V20.66C46.9032 19.94 46.7832 19.46 46.5432 19.22C46.3032 18.98 45.8232 18.86 45.1032 18.86H35.5032V0.439997H52.2432V4.82H40.9032V14.54Z" fill="black"/>
</svg>
